<svg width="230" height="40" viewBox="0 0 230 40" fill="none" xmlns="http://www.w3.org/2000/svg">
<path d="M139.627 34.4074C139.692 34.4158 139.801 34.4325 139.955 34.4577C140.117 34.4829 140.296 34.5333 140.491 34.6089C140.693 34.6761 140.9 34.7684 141.111 34.886C141.322 35.0036 141.513 35.1673 141.683 35.3772C141.853 35.5788 141.995 35.8265 142.109 36.1204C142.223 36.4143 142.279 36.767 142.279 37.1785C142.279 37.1953 142.271 37.2793 142.255 37.4304C142.247 37.5732 142.21 37.7495 142.146 37.9594C142.081 38.1694 141.983 38.3919 141.853 38.627C141.724 38.8622 141.537 39.0847 141.294 39.2946C141.05 39.4962 140.742 39.6641 140.369 39.7985C140.004 39.9328 139.554 40 139.018 40C138.523 40 138.053 39.895 137.607 39.6851C137.169 39.4668 136.791 39.1687 136.475 38.7908L137.716 37.7957C137.716 37.8041 137.745 37.8419 137.801 37.9091C137.866 37.9762 137.956 38.0476 138.069 38.1232C138.191 38.1988 138.341 38.2701 138.519 38.3373C138.706 38.3961 138.925 38.4255 139.176 38.4255C139.639 38.4255 140 38.3037 140.259 38.0602C140.519 37.8083 140.649 37.5144 140.649 37.1785C140.649 36.935 140.6 36.7376 140.503 36.5865C140.405 36.4269 140.272 36.301 140.101 36.2086C139.939 36.1078 139.748 36.0322 139.529 35.9819C139.318 35.9231 139.091 35.8685 138.848 35.8181C138.783 35.8097 138.674 35.7887 138.519 35.7551C138.373 35.7215 138.207 35.667 138.02 35.5914C137.842 35.5158 137.651 35.4192 137.449 35.3017C137.254 35.1757 137.075 35.0204 136.913 34.8356C136.759 34.6425 136.629 34.4158 136.524 34.1554C136.418 33.8867 136.366 33.5718 136.366 33.2107C136.366 33.1939 136.37 33.1184 136.378 32.984C136.394 32.8412 136.431 32.6733 136.487 32.4802C136.552 32.2786 136.65 32.0645 136.779 31.8378C136.917 31.611 137.108 31.4053 137.351 31.2206C137.595 31.0274 137.899 30.8679 138.264 30.7419C138.637 30.6159 139.091 30.553 139.627 30.553C140.122 30.553 140.592 30.6621 141.038 30.8805C141.484 31.0988 141.866 31.3969 142.182 31.7748L140.941 32.7699C140.852 32.6103 140.726 32.4886 140.564 32.4046C140.401 32.3122 140.239 32.245 140.077 32.203C139.882 32.1611 139.675 32.1359 139.456 32.1275C138.994 32.1275 138.633 32.224 138.373 32.4172C138.114 32.6019 137.984 32.8664 137.984 33.2107C137.984 33.4543 138.025 33.6474 138.106 33.7901C138.187 33.9245 138.296 34.0295 138.434 34.105C138.58 34.1806 138.755 34.2394 138.957 34.2814C139.16 34.315 139.383 34.357 139.627 34.4074Z" fill="#F5B2AE"/>
<path d="M150.505 32.1275H145.929V34.4829H149.823V36.0574H145.929V38.4255H150.505V40H144.408V30.553H150.505V32.1275Z" fill="#F5B2AE"/>
<path d="M158.906 30.5404H160.427V40L154.319 34.1302V40H152.798V30.5404L158.906 36.4101V30.5404Z" fill="#F5B2AE"/>
<path d="M169.881 32.1275H166.839V40H165.318V32.1275H162.276V30.553H169.881V32.1275Z" fill="#F5B2AE"/>
<path d="M171.715 30.553H173.224V40H171.715V30.553Z" fill="#F5B2AE"/>
<path d="M180.319 34.2688L184.894 30.5404V40H183.373V33.7902L180.319 36.2842L177.277 33.7902V40H175.756V30.5404L180.319 34.2688Z" fill="#F5B2AE"/>
<path d="M193.521 32.1275H188.946V34.4829H192.84V36.0574H188.946V38.4255H193.521V40H187.425V30.553H193.521V32.1275Z" fill="#F5B2AE"/>
<path d="M201.923 30.5404H203.444V40L197.335 34.1302V40H195.814V30.5404L201.923 36.4101V30.5404Z" fill="#F5B2AE"/>
<path d="M212.898 32.1275H209.856V40H208.335V32.1275H205.293V30.553H212.898V32.1275Z" fill="#F5B2AE"/>
<path d="M217.858 30.553C218.467 30.553 219.043 30.6747 219.586 30.9182C220.138 31.1618 220.625 31.4977 221.046 31.9259C221.468 32.3458 221.801 32.8454 222.044 33.4249C222.296 33.9959 222.421 34.6131 222.421 35.2765C222.421 35.9063 222.304 36.5067 222.069 37.0777C221.833 37.6403 221.509 38.14 221.095 38.5766C220.69 39.0133 220.207 39.3618 219.647 39.6221C219.096 39.874 218.499 40 217.858 40C217.25 40 216.67 39.8782 216.118 39.6347C215.567 39.3912 215.08 39.0553 214.658 38.627C214.244 38.1988 213.912 37.6991 213.66 37.1281C213.417 36.5487 213.295 35.9315 213.295 35.2765C213.295 34.6383 213.413 34.0379 213.648 33.4752C213.883 32.9042 214.204 32.4046 214.609 31.9763C215.023 31.5481 215.506 31.208 216.057 30.956C216.617 30.7041 217.218 30.5698 217.858 30.553ZM217.858 38.4255C218.256 38.4255 218.637 38.3457 219.002 38.1862C219.375 38.0182 219.7 37.7915 219.976 37.506C220.26 37.2205 220.483 36.8888 220.645 36.5109C220.815 36.1246 220.9 35.7131 220.9 35.2765C220.9 34.8566 220.819 34.4577 220.657 34.0799C220.503 33.6936 220.288 33.3577 220.012 33.0722C219.736 32.7783 219.412 32.5473 219.039 32.3794C218.674 32.203 218.28 32.1149 217.858 32.1149C217.453 32.1149 217.063 32.1988 216.69 32.3668C216.325 32.5263 216.001 32.7489 215.717 33.0344C215.441 33.3199 215.218 33.6558 215.048 34.0421C214.885 34.4283 214.804 34.8398 214.804 35.2765C214.804 35.7047 214.881 36.1078 215.035 36.4857C215.198 36.8552 215.417 37.1827 215.692 37.4682C215.968 37.7537 216.289 37.9804 216.654 38.1484C217.027 38.3163 217.428 38.4087 217.858 38.4255Z" fill="#F5B2AE"/>
<path d="M227.347 34.4074C227.412 34.4158 227.522 34.4325 227.676 34.4577C227.838 34.4829 228.017 34.5333 228.211 34.6089C228.414 34.6761 228.621 34.7684 228.832 34.886C229.043 35.0036 229.233 35.1673 229.404 35.3772C229.574 35.5788 229.716 35.8265 229.83 36.1204C229.943 36.4143 230 36.767 230 37.1785C230 37.1953 229.992 37.2793 229.976 37.4304C229.968 37.5732 229.931 37.7495 229.866 37.9594C229.801 38.1694 229.704 38.3919 229.574 38.627C229.444 38.8622 229.258 39.0847 229.014 39.2946C228.771 39.4962 228.463 39.6641 228.09 39.7985C227.725 39.9328 227.274 40 226.739 40C226.244 40 225.774 39.895 225.327 39.6851C224.889 39.4668 224.512 39.1687 224.196 38.7908L225.437 37.7957C225.437 37.8041 225.465 37.8419 225.522 37.9091C225.587 37.9762 225.676 38.0476 225.79 38.1232C225.911 38.1988 226.062 38.2701 226.24 38.3373C226.427 38.3961 226.646 38.4255 226.897 38.4255C227.36 38.4255 227.72 38.3037 227.98 38.0602C228.24 37.8083 228.369 37.5144 228.369 37.1785C228.369 36.935 228.321 36.7376 228.223 36.5865C228.126 36.4269 227.992 36.301 227.822 36.2086C227.66 36.1078 227.469 36.0322 227.25 35.9819C227.039 35.9231 226.812 35.8685 226.569 35.8181C226.504 35.8097 226.394 35.7887 226.24 35.7551C226.094 35.7215 225.928 35.667 225.741 35.5914C225.563 35.5158 225.372 35.4192 225.169 35.3017C224.975 35.1757 224.796 35.0204 224.634 34.8356C224.48 34.6425 224.35 34.4158 224.244 34.1554C224.139 33.8867 224.086 33.5718 224.086 33.2107C224.086 33.1939 224.09 33.1184 224.098 32.984C224.115 32.8412 224.151 32.6733 224.208 32.4802C224.273 32.2786 224.37 32.0645 224.5 31.8378C224.638 31.611 224.828 31.4053 225.072 31.2206C225.315 31.0274 225.619 30.8679 225.984 30.7419C226.358 30.6159 226.812 30.553 227.347 30.553C227.842 30.553 228.313 30.6621 228.759 30.8805C229.205 31.0988 229.586 31.3969 229.903 31.7748L228.661 32.7699C228.572 32.6103 228.447 32.4886 228.284 32.4046C228.122 32.3122 227.96 32.245 227.798 32.203C227.603 32.1611 227.396 32.1359 227.177 32.1275C226.715 32.1275 226.354 32.224 226.094 32.4172C225.834 32.6019 225.705 32.8664 225.705 33.2107C225.705 33.4543 225.745 33.6474 225.826 33.7901C225.907 33.9245 226.017 34.0295 226.155 34.105C226.301 34.1806 226.475 34.2394 226.678 34.2814C226.881 34.315 227.104 34.357 227.347 34.4074Z" fill="#F5B2AE"/>
<path d="M9.53868 11.3111C9.7285 11.3357 10.0488 11.3848 10.4997 11.4585C10.9742 11.5322 11.4962 11.6795 12.0657 11.9006C12.6589 12.0971 13.264 12.3673 13.8809 12.7111C14.4978 13.055 15.0555 13.534 15.5537 14.148C16.052 14.7375 16.4673 15.4621 16.7995 16.3218C17.1317 17.1815 17.2977 18.2131 17.2977 19.4167C17.2977 19.4658 17.274 19.7114 17.2266 20.1535C17.2028 20.5711 17.0961 21.0869 16.9062 21.7009C16.7164 22.315 16.4317 22.9659 16.052 23.6536C15.6724 24.3414 15.1266 24.9923 14.4148 25.6063C13.703 26.1958 12.8013 26.6871 11.7098 27.0801C10.642 27.4731 9.32512 27.6696 7.75907 27.6696C6.31166 27.6696 4.93543 27.3626 3.63039 26.7485C2.34908 26.1099 1.24571 25.2379 0.320319 24.1326L3.95071 21.222C3.95071 21.2465 4.03377 21.3571 4.19987 21.5536C4.38969 21.7501 4.65069 21.9588 4.98289 22.1799C5.33881 22.401 5.77778 22.6097 6.29979 22.8062C6.84554 22.9782 7.4862 23.0641 8.22177 23.0641C9.57427 23.0641 10.6302 22.708 11.3895 21.9957C12.1488 21.2588 12.5284 20.3991 12.5284 19.4167C12.5284 18.7043 12.386 18.1271 12.1013 17.685C11.8166 17.2183 11.4251 16.8499 10.9268 16.5797C10.4522 16.285 9.8946 16.0639 9.25395 15.9165C8.63702 15.7446 7.97262 15.5849 7.26078 15.4376C7.07096 15.413 6.75063 15.3516 6.29979 15.2533C5.87269 15.1551 5.38627 14.9954 4.84052 14.7744C4.3185 14.5533 3.76089 14.2709 3.16769 13.927C2.59822 13.5585 2.0762 13.1041 1.60164 12.5638C1.15081 11.9988 0.771149 11.3357 0.462684 10.5742C0.15422 9.78823 0 8.86715 0 7.81097C0 7.76184 0.0118596 7.54078 0.0355876 7.14779C0.0830438 6.73023 0.189825 6.23898 0.355922 5.67405C0.545746 5.08455 0.830481 4.45822 1.21013 3.79503C1.61351 3.13185 2.17112 2.53008 2.88296 1.98971C3.5948 1.42477 4.4846 0.958089 5.55236 0.589655C6.64385 0.221221 7.97262 0.0370026 9.53868 0.0370026C10.9861 0.0370026 12.3623 0.356313 13.6674 0.994933C14.9724 1.63355 16.0876 2.50551 17.013 3.61082L13.3826 6.52145C13.1216 6.05476 12.7538 5.69861 12.2793 5.45299C11.8047 5.1828 11.3301 4.9863 10.8556 4.86349C10.2861 4.74068 9.68105 4.66699 9.04039 4.64243C7.68789 4.64243 6.63198 4.9249 5.87268 5.48983C5.11338 6.0302 4.73374 6.80391 4.73374 7.81097C4.73374 8.52327 4.85238 9.08821 5.08966 9.50577C5.32695 9.89876 5.64727 10.2058 6.05065 10.4269C6.47776 10.6479 6.98791 10.8198 7.58112 10.9427C8.17432 11.0409 8.82683 11.1637 9.53868 11.3111Z" fill="#F5B2AE"/>
<path d="M41.3564 4.64226H27.9737V11.532H39.3632V16.1374H27.9737V23.064H41.3564V27.6694H23.5247V0.0368347H41.3564V4.64226Z" fill="#F4ABA9"/>
<path d="M65.931 0H70.38V27.6694L52.5128 10.5004V27.6694H48.0638V0L65.931 17.169V0Z" fill="#F4A3A3"/>
<path d="M98.0329 4.64226H89.1349V27.6694H84.6859V4.64226H75.7878V0.0368347H98.0329V4.64226Z" fill="#F39C9E"/>
<path d="M103.398 0.0368347H107.812V27.6694H103.398V0.0368347Z" fill="#F29598"/>
<path d="M115.216 0.0368347H124.114C125.965 0.0859593 127.697 0.491237 129.311 1.25267C130.924 1.98954 132.336 2.98431 133.546 4.23699C134.756 5.48966 135.705 6.95112 136.393 8.62136C137.081 10.267 137.426 12.011 137.426 13.8531C137.426 15.769 137.058 17.5743 136.322 19.2691C135.587 20.9393 134.602 22.4008 133.368 23.6535C132.134 24.8816 130.71 25.8518 129.097 26.5641C127.507 27.2764 125.846 27.6448 124.114 27.6694H115.216V0.0368347ZM124.648 23.0271C125.811 23.0763 126.89 22.8429 127.887 22.3271C128.907 21.8113 129.797 21.1236 130.556 20.2639C131.316 19.3796 131.909 18.3849 132.336 17.2796C132.787 16.1497 133.012 15.0076 133.012 13.8531C133.012 12.6987 132.787 11.5688 132.336 10.4635C131.909 9.33366 131.316 8.33889 130.556 7.47921C129.821 6.61953 128.943 5.93179 127.922 5.41598C126.902 4.90017 125.811 4.65454 124.648 4.67911H119.701V23.0271H124.648Z" fill="#F18D93"/>
<path d="M155.504 0.0368347C157.283 0.0368347 158.968 0.392989 160.558 1.1053C162.171 1.8176 163.595 2.80009 164.829 4.05277C166.063 5.28088 167.035 6.74234 167.747 8.43714C168.483 10.1074 168.851 11.9127 168.851 13.8531C168.851 15.6953 168.507 17.4515 167.818 19.1217C167.13 20.7674 166.181 22.2289 164.971 23.5061C163.785 24.7833 162.373 25.8027 160.736 26.5641C159.122 27.301 157.378 27.6694 155.504 27.6694C153.724 27.6694 152.027 27.3133 150.414 26.601C148.8 25.8886 147.377 24.9062 146.143 23.6535C144.933 22.4008 143.96 20.9393 143.224 19.2691C142.512 17.5743 142.157 15.769 142.157 13.8531C142.157 11.9864 142.501 10.2302 143.189 8.58451C143.877 6.91428 144.814 5.45282 146 4.20014C147.211 2.94747 148.622 1.95269 150.236 1.21583C151.873 0.478956 153.629 0.0859593 155.504 0.0368347ZM155.504 23.064C156.666 23.064 157.781 22.8306 158.849 22.364C159.941 21.8727 160.89 21.2095 161.697 20.3744C162.527 19.5393 163.18 18.5691 163.654 17.4638C164.152 16.3339 164.402 15.1304 164.402 13.8531C164.402 12.625 164.164 11.4583 163.69 10.353C163.239 9.22313 162.61 8.24064 161.803 7.40552C160.997 6.54584 160.047 5.87038 158.956 5.37913C157.888 4.86332 156.737 4.60542 155.504 4.60542C154.317 4.60542 153.178 4.85104 152.087 5.34229C151.019 5.80897 150.07 6.45987 149.239 7.29499C148.433 8.13011 147.78 9.1126 147.282 10.2425C146.807 11.3723 146.57 12.5759 146.57 13.8531C146.57 15.1058 146.795 16.2848 147.246 17.3901C147.721 18.4708 148.361 19.4288 149.168 20.2639C149.975 21.099 150.912 21.7622 151.98 22.2534C153.071 22.7447 154.246 23.0149 155.504 23.064Z" fill="#F1868D"/>
<path d="M183.259 11.3109C183.449 11.3355 183.769 11.3846 184.22 11.4583C184.694 11.532 185.216 11.6794 185.786 11.9004C186.379 12.0969 186.984 12.3671 187.601 12.711C188.218 13.0548 188.776 13.5338 189.274 14.1479C189.772 14.7374 190.187 15.462 190.52 16.3216C190.852 17.1813 191.018 18.2129 191.018 19.4165C191.018 19.4656 190.994 19.7112 190.947 20.1534C190.923 20.5709 190.816 21.0867 190.626 21.7008C190.436 22.3148 190.152 22.9657 189.772 23.6535C189.392 24.3412 188.847 24.9921 188.135 25.6062C187.423 26.1957 186.521 26.6869 185.43 27.0799C184.362 27.4729 183.045 27.6694 181.479 27.6694C180.032 27.6694 178.655 27.3624 177.35 26.7483C176.069 26.1097 174.966 25.2377 174.04 24.1324L177.671 21.2218C177.671 21.2464 177.754 21.3569 177.92 21.5534C178.11 21.7499 178.371 21.9587 178.703 22.1797C179.059 22.4008 179.498 22.6096 180.02 22.8061C180.566 22.978 181.206 23.064 181.942 23.064C183.294 23.064 184.35 22.7078 185.11 21.9955C185.869 21.2587 186.248 20.399 186.248 19.4165C186.248 18.7042 186.106 18.127 185.821 17.6848C185.537 17.2182 185.145 16.8497 184.647 16.5795C184.172 16.2848 183.615 16.0637 182.974 15.9164C182.357 15.7444 181.693 15.5848 180.981 15.4374C180.791 15.4128 180.471 15.3514 180.02 15.2532C179.593 15.1549 179.106 14.9953 178.561 14.7742C178.039 14.5531 177.481 14.2707 176.888 13.9268C176.318 13.5584 175.796 13.104 175.322 12.5636C174.871 11.9987 174.491 11.3355 174.183 10.5741C173.874 9.78806 173.72 8.86698 173.72 7.8108C173.72 7.76168 173.732 7.54061 173.756 7.14762C173.803 6.73006 173.91 6.23881 174.076 5.67388C174.266 5.08438 174.551 4.45805 174.93 3.79487C175.334 3.13168 175.891 2.52991 176.603 1.98954C177.315 1.42461 178.205 0.957922 179.272 0.589487C180.364 0.221053 181.693 0.0368347 183.259 0.0368347C184.706 0.0368347 186.082 0.356145 187.387 0.994765C188.692 1.63338 189.808 2.50535 190.733 3.61065L187.103 6.52128C186.842 6.0546 186.474 5.69844 185.999 5.45282C185.525 5.18263 185.05 4.98614 184.576 4.86332C184.006 4.74051 183.401 4.66683 182.76 4.64226C181.408 4.64226 180.352 4.92473 179.593 5.48966C178.833 6.03003 178.454 6.80375 178.454 7.8108C178.454 8.52311 178.572 9.08804 178.81 9.5056C179.047 9.8986 179.367 10.2056 179.771 10.4267C180.198 10.6477 180.708 10.8197 181.301 10.9425C181.894 11.0407 182.547 11.1636 183.259 11.3109Z" fill="#F07E88"/>
<path d="M221.636 22.9535C221.327 23.6658 220.924 24.3167 220.426 24.9062C219.951 25.4711 219.405 25.9623 218.788 26.3799C218.172 26.7975 217.495 27.129 216.76 27.3747C216.048 27.5957 215.3 27.7063 214.517 27.7063C213.426 27.7063 212.406 27.4975 211.456 27.0799C210.507 26.6378 209.677 26.0483 208.965 25.3114C208.253 24.5746 207.696 23.7149 207.292 22.7324C206.889 21.7499 206.687 20.706 206.687 19.6007C206.687 18.6428 206.83 17.7462 207.114 16.9111C207.423 16.0514 207.838 15.2777 208.36 14.59C208.906 13.9022 209.535 13.3128 210.246 12.8215C210.982 12.3303 211.777 11.9741 212.631 11.753C211.682 11.2127 210.911 10.4635 210.318 9.5056C209.748 8.52311 209.463 7.44237 209.463 6.26338C209.463 5.4037 209.618 4.60542 209.926 3.86855C210.258 3.10712 210.697 2.44394 211.243 1.87901C211.789 1.31407 212.429 0.871952 213.165 0.552643C213.9 0.20877 214.683 0.0368347 215.514 0.0368347C216.344 0.0368347 217.116 0.20877 217.827 0.552643C218.563 0.871952 219.204 1.31407 219.749 1.87901C220.295 2.44394 220.722 3.10712 221.031 3.86855C221.363 4.60542 221.529 5.4037 221.529 6.26338C221.529 7.34412 221.28 8.33889 220.782 9.24769C220.307 10.1319 219.678 10.8565 218.895 11.4215L230 27.7063H224.875L221.636 22.9535ZM215.514 4.56858C215.039 4.56858 214.636 4.72823 214.304 5.04754C213.995 5.36685 213.841 5.77213 213.841 6.26338C213.841 6.73006 213.995 7.13534 214.304 7.47921C214.636 7.79852 215.039 7.95817 215.514 7.95817C215.965 7.95817 216.344 7.79852 216.653 7.47921C216.985 7.13534 217.151 6.73006 217.151 6.26338C217.151 5.77213 216.985 5.36685 216.653 5.04754C216.344 4.72823 215.965 4.56858 215.514 4.56858ZM211.314 19.4165C211.314 19.8832 211.397 20.3253 211.563 20.7428C211.729 21.1358 211.955 21.4797 212.239 21.7745C212.524 22.0692 212.856 22.3026 213.236 22.4745C213.639 22.6464 214.067 22.7324 214.517 22.7324C214.968 22.7324 215.383 22.6464 215.763 22.4745C216.167 22.3026 216.511 22.0692 216.795 21.7745C217.08 21.4797 217.305 21.1358 217.472 20.7428C217.638 20.3253 217.721 19.8832 217.721 19.4165C217.721 18.5077 217.412 17.734 216.795 17.0953C216.178 16.4322 215.419 16.1006 214.517 16.1006C213.616 16.1006 212.856 16.4322 212.239 17.0953C211.623 17.734 211.314 18.5077 211.314 19.4165Z" fill="#EF7782"/>
</svg>
